<?xml version="1.0" standalone="no"?><!DOCTYPE svg PUBLIC "-//W3C//DTD SVG 1.1//EN" "http://www.w3.org/Graphics/SVG/1.1/DTD/svg11.dtd"><svg t="1698571138556" class="icon" viewBox="0 0 1024 1024" version="1.1" xmlns="http://www.w3.org/2000/svg" p-id="9110" xmlns:xlink="http://www.w3.org/1999/xlink" width="60" height="60"><path d="M964.3008 525.312c-26.88 2.3552-51.3024-5.12-77.824-18.432 2.7136-0.768 5.4272-1.4848 8.2944-2.1504a25.5232 25.5232 0 0 0 19.0976-19.6608c1.9968-9.6256-1.8432-19.6096-9.7792-25.4976-12.4928-9.216-19.3024-19.5072-20.8896-31.4368-4.5056-33.8432 31.4368-79.0528 55.1936-109.0048l3.1744-3.9936c7.68-9.6768 7.424-23.04-0.7168-32.4096a25.46176 25.46176 0 0 0-31.9488-5.376c-33.792 19.6096-49.6128 17.5616-56.0128 14.6432-7.0656-3.2768-11.9296-11.776-14.336-25.2416-0.3072-1.5872 0.3072-5.9392 0.8704-10.1888 1.4336-10.3424 3.584-25.9584 0.9728-49.4592a25.56416 25.56416 0 0 0-17.8688-21.5552c-2.9184-0.8704-5.888-1.1776-8.8064-1.024 4.4544-31.4368 4.7616-68.4544-0.4096-113.0496-1.9968-17.3056-16.64-30.3616-33.8432-30.4128h-0.6144c-18.8416 0-34.2528 15.3088-34.304 34.2016-0.0512 14.1824-3.5328 38.3488-11.7248 65.1776-41.6768-2.304-77.7216 10.0864-114.1248 39.5776-3.8912-77.2608-62.6176-117.76-97.9456-129.1776-2.048-0.6656-4.1472-0.9728-6.2976-0.9728h-3.4816c-2.1504 0-4.2496 0.3584-6.2976 0.9728-35.328 11.4176-94.0032 51.968-97.8944 129.2288-39.8848-32.256-79.4624-44.1344-126.3104-38.6048-8.3968-27.1872-11.9808-51.8144-12.032-66.1504-0.1024-18.8416-15.4624-34.1504-34.7136-34.1504h-0.1024a34.3552 34.3552 0 0 0-33.9968 30.4128c-5.3248 45.6704-4.864 83.456-0.1024 115.3536a25.5232 25.5232 0 0 0-14.4896 20.224c-2.6112 23.5008-0.4608 39.1168 0.9728 49.4592 0.5632 4.1984 1.1776 8.5504 0.8704 10.1888-2.4576 13.4656-7.2704 21.9648-14.3872 25.2416-6.4 2.9696-22.2208 5.0176-56.0128-14.6432a25.45152 25.45152 0 0 0-31.9488 5.376c-8.0896 9.3696-8.3968 22.6816-0.7168 32.4096l3.2256 4.0448c23.7568 29.9008 59.648 75.1616 55.1936 109.0048-1.5872 11.9296-8.3968 22.2208-20.8896 31.4368a25.43616 25.43616 0 0 0-9.7792 25.4976c1.9968 9.6768 9.472 17.408 19.0976 19.6608 1.28 0.3072 2.4576 0.6656 3.6864 0.9728-27.4944 14.0288-52.5824 22.0672-80.2816 19.6096-11.3152-0.9216-21.1968 7.3728-22.1696 18.6368s7.3728 21.1968 18.6368 22.1696c4.4544 0.4096 8.8576 0.5632 13.1584 0.5632 36.0448 0 68.1472-12.8512 101.1712-30.9248-0.256 2.6112-0.2048 5.2736 0.3584 7.8848 7.5264 35.3792 38.4512 67.3792 72.0896 87.5008-39.0656 21.9136-58.0608 47.7184-60.7232 81.3056-0.7168 9.0112 3.5328 17.8176 11.0592 22.9376 7.5776 5.12 17.3568 5.8368 25.5488 1.792l1.2288-0.6144c15.0016-7.3728 30.2592-14.8992 45.2608-20.9408-0.1024 0.3072-0.1536 0.5632-0.256 0.8704-2.816 10.24 0.8704 20.8896 9.472 27.1872a25.25696 25.25696 0 0 0 28.928 0.8192c16.3328-10.6496 32.3072-19.2 46.848-25.3952-0.2048 5.2736-0.4608 11.5712-0.8192 18.4832-10.2912 13.2096-22.5792 24.5248-36.6592 33.28-33.8944 21.0944-71.8336 23.3472-106.8544 6.2464-81.664-39.8336-41.1648-157.9008-39.3728-162.9184 3.7888-10.6496-1.792-22.3232-12.4416-26.112-10.6496-3.7888-22.3744 1.792-26.1632 12.4416-19.3024 54.272-31.6416 168.704 60.0064 213.4016C203.52 824.32 225.792 829.44 248.064 829.44c27.7504 0 55.4496-7.936 80.7936-23.7056 3.1744-1.9456 6.1952-4.0448 9.216-6.1952-1.792 12.4416-4.096 24.1664-6.9632 33.6896-10.3936 34.6624-5.7856 67.7376 13.056 93.0304 27.9552 37.5808 85.1968 56.6784 170.1376 56.6784 80.9472 0 136.192-20.1216 164.1472-59.7504 20.4288-28.928 24.6272-68.7616 11.2128-106.4448-1.8432-5.12-3.328-10.2912-4.608-15.4112 2.2016 1.4848 4.352 3.0208 6.6048 4.4032 25.344 15.7696 53.0432 23.7056 80.7936 23.7056 22.272 0 44.5952-5.12 65.6896-15.4112 91.648-44.6976 79.36-159.1808 60.0064-213.4016a20.5056 20.5056 0 0 0-26.112-12.4416 20.51072 20.51072 0 0 0-12.4928 26.112c1.7408 5.0176 42.24 123.0848-39.3728 162.9184-35.0208 17.1008-72.96 14.848-106.8544-6.2464-13.056-8.1408-24.576-18.4832-34.4064-30.464 0.1024-7.7312 0.3584-15.0528 0.6656-21.8112 14.848 6.1952 31.2832 15.0016 48.0768 25.9072a25.1904 25.1904 0 0 0 28.8768-0.8192 25.1392 25.1392 0 0 0 9.472-27.1872c-0.1024-0.256-0.1536-0.5632-0.256-0.8704 15.0016 6.0416 30.208 13.568 45.2096 20.9408l1.28 0.6144c8.192 4.0448 17.9712 3.328 25.5488-1.792 7.5264-5.12 11.7248-13.8752 11.008-22.9376-2.6624-33.536-21.6576-59.3408-60.7232-81.3056 33.6896-20.1216 64.5632-52.1216 72.0896-87.5008 0.3072-1.3824 0.4096-2.7136 0.512-4.096 30.5152 16.0256 60.5696 27.136 94.0032 27.136 4.352 0 8.704-0.2048 13.1584-0.5632 11.264-0.9728 19.6096-10.9056 18.6368-22.1696s-10.9568-19.712-22.1696-18.7392z m-248.2176-344.0128c-6.5536 8.2944-11.2128 15.8208-14.4896 22.4256-0.1024-0.6144-0.256-1.1264-0.3584-1.7408l-0.4608-2.1504c-0.3584-1.4848-0.768-2.9184-1.1776-4.3008-0.1536-0.5632-0.3072-1.1264-0.512-1.6384-0.6656-1.8432-1.3824-3.6352-2.2016-5.2736-0.1536-0.256-0.3072-0.512-0.4096-0.768a38.7584 38.7584 0 0 0-1.792-3.1744c7.168-1.8944 14.2848-2.9696 21.4016-3.3792z m-86.6816 130.4576c9.8816-17.2544 18.4832-35.1232 24.32-50.944 3.1744-8.5504 4.608-18.4832 6.0416-28.0064 0.6144-4.3008 1.4848-10.1376 2.56-15.104 0.7168 9.9328 0.3072 25.4976-0.1024 40.6528l-0.1024 2.9184c-0.2048 8.0896 4.352 15.5648 11.6736 19.0464 3.6352 1.7408 7.6288 2.304 11.52 1.792 0.2048-0.0512 0.4096-0.1024 0.6144-0.1024 0.768-0.1024 1.4848-0.256 2.2016-0.4608 2.816-0.768 5.4784-2.2016 7.7824-4.1472 3.1232-2.6624 6.0928-5.4272 8.96-8.2432 0.7168-0.6656 1.3824-1.3824 2.048-2.0992 2.304-2.304 4.5568-4.6592 6.7584-7.0656 0.6656-0.768 1.3824-1.536 2.048-2.304 2.3552-2.6624 4.608-5.376 6.8096-8.1408l1.3312-1.6384c11.776-15.104 21.5552-31.5392 29.5936-48.2816 0.1024-0.256 0.256-0.4608 0.4096-0.7168 0.512-1.024 0.9216-2.1504 1.4336-3.2256 1.2288-2.6624 2.4064-5.3248 3.584-7.9872 0.6656-1.5872 1.3824-3.1744 2.048-4.7616 1.536-3.7376 2.9696-7.424 4.352-11.1616 0.3072-0.768 0.6144-1.4848 0.8704-2.304 0.0512-0.2048 0.1024-0.4096 0.1536-0.5632 3.9424-10.9568 7.2704-21.76 9.9328-32.0512-0.2048 34.9696-5.12 62.8736-13.6192 86.0672-15.4624 42.1376-43.6224 70.2976-81.1008 99.6352-63.0784 49.3568-78.848 83.456-92.7232 113.5616-1.6896 3.6352-3.2768 7.1168-4.9152 10.5472 2.048-46.4896 10.24-82.3296 23.1936-100.096 7.7312-10.7008 15.36-22.6304 22.3232-34.816z m-8.9088 217.4976c11.776 0 21.3504 9.5744 21.3504 21.3504s-9.5744 21.3504-21.3504 21.3504-21.3504-9.5744-21.3504-21.3504 9.5744-21.3504 21.3504-21.3504z m-72.0896 325.3248l9.0624 25.4464c-10.4448 3.4304-22.9888 5.4784-37.7344 5.9392-21.2992 0.7168-39.2704-0.7168-53.6064-4.096l9.728-27.2384c3.7888-10.6496-1.792-22.3744-12.4416-26.1632-10.6496-3.7888-22.3744 1.792-26.1632 12.4416l-6.912 19.4048c-6.912-11.7248-6.8608-28.672 0.3072-50.5344 4.3008-13.1584 6.2976-28.3648 6.9632-43.3152a20.5312 20.5312 0 0 0 16.896 9.0112c2.304 0 4.608-0.4096 6.8608-1.1776a20.50048 20.50048 0 0 0 12.4416-26.1632l-8.9088-25.088c2.0992-0.768 4.1984-1.6384 6.2464-2.6624 10.8032 11.1104 24.4224 17.2544 38.8608 17.2544 14.1824 0 27.7504-6.0416 38.5024-16.896 2.2016 1.0752 4.4032 1.9456 6.7072 2.7136l-8.8064 24.6784a20.50048 20.50048 0 0 0 19.3024 27.3408c3.7376 0 7.3216-1.0752 10.4448-2.9184 2.7136 10.6496 6.6048 19.2 10.1376 26.9824 3.9424 8.6528 7.0656 15.4624 8.1408 24.1152 0.7168 5.376 1.3312 16.9984-3.4304 28.4672l-3.9936-11.2128a20.50048 20.50048 0 0 0-26.1632-12.4416 20.42368 20.42368 0 0 0-12.4416 26.112z m-118.3744-193.1264c0-0.4096 0.0512-0.768 0.1024-1.1776 0.1536-4.3008 1.1264-8.3968 2.816-11.8272 0.1536-0.3072 0.3072-0.5632 0.4608-0.8704 0.4608-0.8192 0.9216-1.6384 1.4336-2.3552 0.4096-0.5632 0.8704-1.1264 1.28-1.6384 0.3072-0.3584 0.6144-0.7168 0.9216-1.024 0.5632-0.5632 1.0752-1.024 1.6896-1.4848 0.3072-0.256 0.6144-0.4608 0.9216-0.7168 0.5632-0.3584 1.0752-0.7168 1.6384-1.024 0.512-0.256 1.024-0.4608 1.536-0.6656 0.4096-0.1536 0.8192-0.3584 1.2288-0.4608 0.9728-0.256 1.9968-0.4608 3.072-0.4608 3.1232 0 6.0928 1.2288 8.8576 3.6352 5.9904 5.2736 13.824 7.68 21.504 6.656 7.8848-1.0752 15.0528-5.6832 19.6096-12.6464 0.6656-0.9728 1.6896-2.4576 3.072-3.9424 0.0512-0.0512 0.1536-0.1536 0.256-0.2048 1.0752-1.0752 2.4064-2.304 3.9936-3.2256a1.0752 1.0752 0 0 0 0.3072-0.2048c0.6656-0.3584 1.3312-0.6656 2.048-0.9216 0.2048-0.0512 0.3584-0.1536 0.5632-0.2048 0.8704-0.256 1.7408-0.4096 2.6624-0.4096s1.8432 0.1536 2.6624 0.4608c0.1536 0.0512 0.3072 0.1024 0.512 0.1536 0.768 0.256 1.536 0.6144 2.2528 1.024 0 0 0.0512 0 0.0512 0.0512 1.6384 0.9728 3.0208 2.2528 4.1472 3.3792 0.0512 0.1024 0.1536 0.1536 0.256 0.2048 1.1264 1.2288 2.048 2.4064 2.6112 3.2256 4.864 7.0656 12.1856 11.6736 20.0704 12.6976a26.368 26.368 0 0 0 20.6336-6.2464c2.7136-2.304 5.632-3.4816 8.6528-3.4816 1.024 0 2.048 0.2048 3.072 0.4608 0.4096 0.1024 0.8192 0.3072 1.2288 0.4608 0.512 0.2048 1.024 0.4096 1.536 0.6656 0.5632 0.3072 1.0752 0.6144 1.6384 1.024 0.3072 0.2048 0.6656 0.4608 0.9728 0.7168a14.7968 14.7968 0 0 1 2.6112 2.6112c0.4096 0.512 0.8704 1.024 1.2288 1.536 0.5632 0.8192 1.024 1.6384 1.536 2.56 0.1024 0.2048 0.256 0.4096 0.3584 0.6656 1.8432 3.7888 2.9184 8.2944 2.9184 13.056 0 1.4336-0.1536 2.816-0.3072 4.1472l-0.1536 1.1264c-0.2048 1.1776-0.4608 2.304-0.768 3.3792-0.0512 0.256-0.1536 0.512-0.2048 0.768-0.3584 1.0752-0.768 2.0992-1.2288 3.072-0.2048 0.512-0.4608 0.9728-0.7168 1.4336-0.3072 0.5632-0.6144 1.0752-0.9216 1.5872-1.2288 1.8944-2.6624 3.584-4.352 4.9664-2.5088 1.9968-5.3248 3.2768-8.3456 3.2768-3.0208 0-5.9392-1.1776-8.6528-3.5328-5.8368-5.0176-13.1584-7.2192-20.6336-6.2464-7.8848 1.024-15.2064 5.632-20.0704 12.6976-1.792 2.56-6.5024 8.4992-12.4928 8.4992-6.2464 0-11.1104-6.4-12.9024-9.1136-4.608-7.0144-11.7248-11.6224-19.6096-12.6464a27.09504 27.09504 0 0 0-21.504 6.7072c-2.7648 2.4064-5.7344 3.6864-8.8576 3.6864-3.3792 0-6.6048-1.4848-9.3184-3.9936a1.11616 1.11616 0 0 1-0.2048-0.256c-1.1264-1.0752-2.0992-2.304-2.9696-3.6864l-0.4608-0.768a28.5696 28.5696 0 0 1-1.792-3.5328c-0.1536-0.4096-0.3584-0.8192-0.512-1.2288-0.4608-1.2288-0.768-2.4576-1.0752-3.7376a27.392 27.392 0 0 1-0.8704-6.656z m-23.552-425.6768a25.2416 25.2416 0 0 0 29.8496 5.12c10.0864-5.12 15.5136-16.0256 13.5168-27.1872-14.848-82.688 45.4656-114.6368 62.9248-122.0608 17.664 7.3216 77.7728 38.7584 62.7712 122.0608-1.9968 11.1616 3.4304 22.0672 13.5168 27.1872 9.5232 4.864 20.7872 3.2256 28.5696-3.8912-0.0512 0.1536-0.0512 0.3072-0.1024 0.512l-0.1536 0.9216c-0.1024 0.6144-0.2048 1.1776-0.3584 1.7408l-0.1536 0.6144c-0.1536 0.6144-0.256 1.28-0.4096 1.8432 0 0.1024-0.0512 0.1536-0.0512 0.256-0.3584 1.3824-0.7168 2.6624-1.1264 3.7888-3.2256 8.8064-8.2432 20.1216-14.6944 32.512-7.168 13.7728-16.128 28.8256-26.6752 43.3664-3.0208 4.1472-5.7344 8.7552-8.2432 13.6192l-0.6144 1.0752c-0.256 0.512-0.512 1.1264-0.768 1.6384-17.8176 36.9664-21.9136 90.5216-21.9136 131.7376 0 17.3056 9.8816 31.3344 24.576 34.9184h0.0512c0.8192 0.2048 1.7408 0.3584 2.7648 0.512 0.2048 0.0512 0.3584 0.0512 0.5632 0.1024 1.0752 0.1536 2.2016 0.2048 3.4816 0.2048h0.256c0.3584 0 0.7168 0 1.0752-0.0512 0.3072 0 0.5632 0 0.8704-0.0512 0.256 0 0.5632-0.0512 0.8192-0.0512a62.10048 62.10048 0 0 0-18.688 44.4416c0 17.9712 7.68 34.0992 19.8656 45.4656-11.3664-2.9184-23.7568-2.4576-34.6624 1.6384-3.4816-2.816-7.168-5.1712-11.008-7.0144-0.3072-0.1536-0.6656-0.3584-0.9728-0.4608-0.9728-0.4608-1.9456-0.8192-2.9184-1.2288-0.5632-0.2048-1.1776-0.4608-1.7408-0.6656-0.8704-0.3072-1.7408-0.5632-2.6112-0.8192l-2.2528-0.6144c-0.768-0.2048-1.536-0.3584-2.3552-0.512-0.9728-0.2048-1.8944-0.3072-2.8672-0.4608-0.6144-0.1024-1.2288-0.2048-1.8432-0.256-1.6384-0.1536-3.2256-0.256-4.864-0.256-1.6384 0-3.2768 0.1024-4.9152 0.256-0.6656 0.0512-1.3312 0.2048-1.9968 0.256-0.9216 0.1536-1.8432 0.256-2.816 0.4608-0.8192 0.1536-1.6384 0.3584-2.5088 0.5632-0.7168 0.1536-1.4336 0.3584-2.1504 0.5632-0.9216 0.256-1.8432 0.5632-2.7648 0.9216-0.5632 0.2048-1.0752 0.4096-1.6384 0.6144-1.024 0.4096-2.048 0.8192-3.0208 1.28l-0.9216 0.4608c-3.6864 1.8432-7.2704 4.096-10.5984 6.8096-0.1536 0.1536-0.3584 0.256-0.512 0.3584-11.264-4.352-24.2688-4.864-36.096-1.6896 12.3392-11.3664 20.0704-27.648 20.0704-45.6704 0-17.408-7.168-33.1264-18.688-44.4416 0.3584-0.0512 0.6656-0.0512 1.024-0.1024 0.2048 0 0.3584-0.0512 0.5632-0.1024 1.024-0.1536 1.9968-0.3072 2.816-0.512 14.6944-3.5328 24.576-17.5616 24.576-34.9184 0-47.7696-5.4784-112.2304-31.5392-148.0704-5.0176-6.912-9.6768-13.9264-13.9776-20.8896-12.8512-20.8384-22.272-41.0112-27.392-54.9888-1.0752-2.8672-1.8944-6.9632-2.6624-11.4688-0.4608-2.7136-0.8704-5.5808-1.28-8.3968l-0.6144-3.9936c0-0.1024-0.0512-0.256-0.0512-0.3584 4.5568 4.096 9.0624 8.5504 13.6704 13.3632zM319.8976 182.4768c-0.1536 0.2048-0.256 0.4096-0.4096 0.6144-0.3072 0.3584-0.5632 0.768-0.8192 1.1776-0.768 1.1264-1.4848 2.304-2.1504 3.5328-0.2048 0.4096-0.4608 0.8192-0.6656 1.28-0.1024 0.256-0.256 0.4608-0.3584 0.7168-1.8432-2.7136-3.9424-5.5808-6.2464-8.4992 3.5328 0.2048 7.1168 0.5632 10.6496 1.1776z m-32.7168 63.1296c0.0512 0.0512 0.0512 0.1024 0.1024 0.1536 0.0512 0.0512 0.0512 0.1024 0.1024 0.1536a207.616 207.616 0 0 0 21.6576 24.3712c2.56 2.4576 5.1712 4.864 7.8336 7.1168 0.3072 0.256 0.6656 0.512 1.024 0.768 5.12 3.8912 11.776 5.12 17.8688 3.3792 1.0752-0.3072 2.2016-0.6656 3.2256-1.1776a20.5056 20.5056 0 0 0 11.6736-19.0464l-0.1024-2.9696c-0.4096-15.1552-0.8192-30.72-0.1024-40.6528 1.0752 4.9664 1.9456 10.8544 2.56 15.1552 1.4336 9.5744 2.8672 19.456 6.0416 28.0064 9.9328 26.9824 27.8528 59.8528 46.6944 85.76 12.9024 17.7664 21.0944 53.5552 23.1936 100.096-1.6384-3.4304-3.2768-6.9632-4.9664-10.5984-2.5088-5.376-5.0176-10.9056-7.8848-16.64-0.1536-0.256-0.256-0.512-0.4096-0.8192-0.4096-0.768-0.8192-1.536-1.2288-2.3552-0.6656-1.2288-1.28-2.5088-1.9456-3.7376-0.0512-0.0512-0.0512-0.1024-0.1024-0.1536-13.2608-24.576-33.9456-52.992-81.152-89.9072l-1.4848-1.1776c-1.9968-1.536-3.9424-3.1232-5.8368-4.6592-0.1024-0.1024-0.2048-0.1536-0.3072-0.256-27.0336-21.8112-48.0768-42.9568-62.8224-69.9392-0.256-0.512-0.5632-1.024-0.8192-1.5872-0.8704-1.5872-1.6896-3.2256-2.5088-4.864-0.4608-0.9728-0.9728-1.9968-1.4336-2.9696-0.5632-1.2288-1.1264-2.4576-1.6896-3.7376-1.2288-2.7648-2.3552-5.5808-3.4816-8.4992-0.1536-0.4096-0.3072-0.8192-0.512-1.28-0.5632-1.536-1.1264-3.1744-1.6896-4.7616-0.3072-0.8704-0.5632-1.6896-0.8704-2.56-7.0656-21.8624-11.1616-47.7184-11.3152-79.4624 9.0112 34.7136 25.0368 75.0592 50.688 108.8512z m132.0448 304.9984c0 11.776-9.5744 21.3504-21.3504 21.3504s-21.3504-9.5744-21.3504-21.3504 9.5744-21.3504 21.3504-21.3504a21.4016 21.4016 0 0 1 21.3504 21.3504zM188.7232 474.112c-2.3552 1.4336-4.608 2.816-6.912 4.2496-4.864-2.048-9.984-3.9936-15.36-5.8368 8.96-11.6224 14.4384-24.6272 16.3328-38.912 4.608-34.6624-12.6464-69.376-33.536-99.84 15.1552 2.4064 28.6208 0.9216 40.3968-4.5056 13.6704-6.2976 31.2832-20.992 37.4784-55.0912 0.2048-1.0752 0.3584-2.0992 0.4608-3.1232 0.2048 0.3072 0.4096 0.6144 0.6144 0.9728 2.0992 3.584 4.2496 7.0144 6.5024 10.3424 0.3072 0.4096 0.5632 0.8704 0.8704 1.28 19.3024 28.6208 43.8784 50.2784 69.7856 70.6048 0.256 0.2048 0.512 0.4096 0.8192 0.6144 18.8416 14.7456 32.7168 27.6992 43.3664 39.4752 8.8576 9.8304 15.5648 18.7904 20.8896 27.2896 0.1536 0.2048 0.256 0.4608 0.4096 0.6656 0.2048 0.3072 0.3584 0.6144 0.5632 0.9728-33.024-9.8816-73.7792-10.6496-116.5824 12.288-24.4736 13.056-46.592 26.624-66.0992 38.5536z m134.7072 209.5104c-0.3072-1.536-0.768-3.1232-1.3312-4.6592a25.37472 25.37472 0 0 0-27.2384-15.872c-19.6608 2.7648-39.1168 9.5232-58.3168 17.7664 9.5744-8.0896 24.1152-16.896 46.2336-26.2656 9.728-4.096 15.8208-13.568 15.5648-24.064a25.15456 25.15456 0 0 0-16.5888-23.1424c-22.6816-8.3456-44.544-24.0128-59.1872-41.0112 3.2768 0.4096 6.1952 0.512 8.6528 0.512a25.37984 25.37984 0 0 0 23.04-15.104c4.0448-9.1648 2.304-19.9168-4.4032-27.3408-5.7344-6.3488-14.4896-14.6944-26.7264-23.3984 15.9744-9.728 32.6144-19.6096 50.9952-29.44 68.9664-37.0176 123.8528 9.2672 132.6592 17.3568-2.9184-0.4096-5.9392-0.7168-8.96-0.7168-34.3552 0-62.3104 27.9552-62.3104 62.3104s27.9552 62.3104 62.3104 62.3104c4.1984 0 8.2944-0.4096 12.2368-1.2288-0.4096 0.3584-0.768 0.8192-1.1776 1.1776-0.6144 0.6144-1.2288 1.1776-1.792 1.8432-0.7168 0.768-1.4336 1.5872-2.1504 2.4064-0.0512 0.1024-0.1536 0.1536-0.256 0.256-2.048-0.6656-4.1472-1.1264-6.4512-1.1264h-0.0512c-11.264 0-20.4288 9.1136-20.48 20.4288a175.5648 175.5648 0 0 1-2.9696 31.2832c-17.0496 2.2528-34.8672 8.2944-51.3024 15.7184z m321.4848 215.8592c-19.5584 27.7504-64.768 42.3936-130.7136 42.3936-70.2464 0-117.7088-13.8752-137.2672-40.1408-13.9776-18.7904-11.3664-41.2672-6.7072-56.832 7.7312-25.7024 11.6736-63.1296 13.6704-93.184 4.4032-6.5536 8.448-13.4144 12.0832-20.48 1.5872 20.992 1.6896 47.5648-4.2496 65.7408-15.2064 46.336-4.2496 74.9568 7.68 90.8288 19.5584 26.112 56.6784 39.3216 110.336 39.3216 3.6864 0 7.4752-0.0512 11.3664-0.2048 42.8544-1.3824 74.5472-13.824 94.208-36.9152 22.7328-26.7776 21.4016-59.0336 19.7632-71.6288-1.8944-14.7456-7.0144-25.9584-11.52-35.84-7.6288-16.6912-14.2336-31.2832-6.4512-67.2256 5.5808 13.7216 12.5952 26.7776 20.8896 38.7584 0.5632 23.296 3.5328 49.4592 13.056 76.288 3.328 9.4208 12.8 42.2912-6.144 69.12z m98.6112-292.096a25.088 25.088 0 0 0-16.5376 23.1424 25.33888 25.33888 0 0 0 15.5648 24.064c22.1184 9.3184 36.608 18.176 46.2336 26.2656-19.1488-8.2432-38.6048-14.9504-58.3168-17.7664-11.6736-1.6896-22.8864 4.864-27.1872 15.872-0.6144 1.536-1.024 3.072-1.3312 4.6592-18.1248-8.192-37.8368-14.6944-56.4736-16.2816-1.8432-9.984-2.816-20.2752-2.8672-30.72a20.49536 20.49536 0 0 0-20.48-20.4288h-0.0512c-2.7136 0-5.2224 0.5632-7.5776 1.536-0.1536-0.2048-0.3584-0.4096-0.5632-0.6144-0.7168-0.8192-1.3824-1.6384-2.1504-2.4064-0.5632-0.6144-1.1776-1.2288-1.792-1.792-0.3584-0.3584-0.7168-0.768-1.1264-1.1264 3.7888 0.7168 7.6288 1.1264 11.6224 1.1264 34.3552 0 62.3104-27.9552 62.3104-62.3104s-27.9552-62.3104-62.3104-62.3104c-3.072 0-6.0416 0.3072-8.96 0.7168 8.2944-7.5776 63.744-54.3744 132.6592-17.3568 19.8144 10.6496 37.632 21.2992 54.784 31.744-10.5984 7.8336-18.3296 15.3088-23.552 21.0944a25.4976 25.4976 0 0 0-4.4032 27.3408 25.344 25.344 0 0 0 23.04 15.1552c2.5088 0 5.4272-0.1536 8.6528-0.512-14.592 16.896-36.4544 32.5632-59.1872 40.9088z m99.0208-173.824c1.8944 14.2848 7.3728 27.2896 16.3328 38.912-6.9632 2.4064-13.3632 4.9664-19.456 7.6288-3.2256-1.9456-6.5024-3.9936-9.8304-5.9904-19.5072-11.9296-41.6256-25.4464-66.048-38.5536-45.7728-24.576-89.2416-21.9648-123.392-10.0864 11.6224-19.6096 29.6448-41.728 66.56-70.6048 34.2016-26.7264 66.1504-55.7056 86.784-99.84 0.7168-1.536 1.4336-3.1232 2.1504-4.7104l1.0752-2.4576c0.512-1.1776 1.024-2.304 1.536-3.5328l1.536-0.9216c-0.3072 2.7648-0.6656 5.2736-0.9728 7.68-1.0752 7.7312-2.048 15.0528-0.6144 23.0912 6.1952 34.0992 23.808 48.7936 37.4784 55.0912 11.776 5.4272 25.2928 6.912 40.3968 4.5056-20.8384 30.4128-38.0928 65.1264-33.536 99.7888z" fill="#0f3e07" p-id="9111" data-spm-anchor-id="a313x.search_index.0.i1.20233a81YuvLiU" class="selected"></path></svg>